<svg width="513" height="54" viewBox="0 0 513 54" fill="none" xmlns="http://www.w3.org/2000/svg">
<rect width="513" height="54" rx="27" fill="#2C0000"/>
<path d="M488.375 37.375L482.954 31.9448L488.375 37.375ZM485.958 24.6875C485.958 27.4115 484.876 30.0239 482.95 31.9501C481.024 33.8763 478.411 34.9584 475.687 34.9584C472.963 34.9584 470.351 33.8763 468.425 31.9501C466.499 30.0239 465.417 27.4115 465.417 24.6875C465.417 21.9635 466.499 19.3511 468.425 17.4249C470.351 15.4988 472.963 14.4167 475.687 14.4167C478.411 14.4167 481.024 15.4988 482.95 17.4249C484.876 19.3511 485.958 21.9635 485.958 24.6875V24.6875Z" stroke="#F6F6F6" stroke-width="3" stroke-linecap="round" stroke-linejoin="round"/>
<path d="M33.526 20.49V33H31.474V24.432L27.658 33H26.236L22.402 24.432V33H20.35V20.49H22.564L26.956 30.3L31.33 20.49H33.526ZM37.267 21.768C36.895 21.768 36.583 21.642 36.331 21.39C36.079 21.138 35.953 20.826 35.953 20.454C35.953 20.082 36.079 19.77 36.331 19.518C36.583 19.266 36.895 19.14 37.267 19.14C37.627 19.14 37.933 19.266 38.185 19.518C38.437 19.77 38.563 20.082 38.563 20.454C38.563 20.826 38.437 21.138 38.185 21.39C37.933 21.642 37.627 21.768 37.267 21.768ZM38.275 23.082V33H36.223V23.082H38.275ZM40.2851 28.032C40.2851 27.012 40.4891 26.118 40.8971 25.35C41.3171 24.57 41.8931 23.97 42.6251 23.55C43.3571 23.13 44.1971 22.92 45.1451 22.92C46.3451 22.92 47.3351 23.208 48.1151 23.784C48.9071 24.348 49.4411 25.158 49.7171 26.214H47.5031C47.3231 25.722 47.0351 25.338 46.6391 25.062C46.2431 24.786 45.7451 24.648 45.1451 24.648C44.3051 24.648 43.6331 24.948 43.1291 25.548C42.6371 26.136 42.3911 26.964 42.3911 28.032C42.3911 29.1 42.6371 29.934 43.1291 30.534C43.6331 31.134 44.3051 31.434 45.1451 31.434C46.3331 31.434 47.1191 30.912 47.5031 29.868H49.7171C49.4291 30.876 48.8891 31.68 48.0971 32.28C47.3051 32.868 46.3211 33.162 45.1451 33.162C44.1971 33.162 43.3571 32.952 42.6251 32.532C41.8931 32.1 41.3171 31.5 40.8971 30.732C40.4891 29.952 40.2851 29.052 40.2851 28.032ZM56.8921 22.92C57.6481 22.92 58.3201 23.082 58.9081 23.406C59.5081 23.73 59.9761 24.21 60.3121 24.846C60.6601 25.482 60.8341 26.25 60.8341 27.15V33H58.8001V27.456C58.8001 26.568 58.5781 25.89 58.1341 25.422C57.6901 24.942 57.0841 24.702 56.3161 24.702C55.5481 24.702 54.9361 24.942 54.4801 25.422C54.0361 25.89 53.8141 26.568 53.8141 27.456V33H51.7621V19.68H53.8141V24.234C54.1621 23.814 54.6001 23.49 55.1281 23.262C55.6681 23.034 56.2561 22.92 56.8921 22.92ZM62.7676 27.996C62.7676 27 62.9716 26.118 63.3796 25.35C63.7996 24.582 64.3636 23.988 65.0716 23.568C65.7916 23.136 66.5836 22.92 67.4476 22.92C68.2276 22.92 68.9056 23.076 69.4816 23.388C70.0696 23.688 70.5376 24.066 70.8856 24.522V23.082H72.9556V33H70.8856V31.524C70.5376 31.992 70.0636 32.382 69.4636 32.694C68.8636 33.006 68.1796 33.162 67.4116 33.162C66.5596 33.162 65.7796 32.946 65.0716 32.514C64.3636 32.07 63.7996 31.458 63.3796 30.678C62.9716 29.886 62.7676 28.992 62.7676 27.996ZM70.8856 28.032C70.8856 27.348 70.7416 26.754 70.4536 26.25C70.1776 25.746 69.8116 25.362 69.3556 25.098C68.8996 24.834 68.4076 24.702 67.8796 24.702C67.3516 24.702 66.8596 24.834 66.4036 25.098C65.9476 25.35 65.5756 25.728 65.2876 26.232C65.0116 26.724 64.8736 27.312 64.8736 27.996C64.8736 28.68 65.0116 29.28 65.2876 29.796C65.5756 30.312 65.9476 30.708 66.4036 30.984C66.8716 31.248 67.3636 31.38 67.8796 31.38C68.4076 31.38 68.8996 31.248 69.3556 30.984C69.8116 30.72 70.1776 30.336 70.4536 29.832C70.7416 29.316 70.8856 28.716 70.8856 28.032ZM84.7408 27.798C84.7408 28.17 84.7168 28.506 84.6688 28.806H77.0908C77.1508 29.598 77.4448 30.234 77.9728 30.714C78.5008 31.194 79.1488 31.434 79.9168 31.434C81.0208 31.434 81.8008 30.972 82.2568 30.048H84.4708C84.1708 30.96 83.6248 31.71 82.8328 32.298C82.0528 32.874 81.0808 33.162 79.9168 33.162C78.9688 33.162 78.1168 32.952 77.3608 32.532C76.6168 32.1 76.0288 31.5 75.5968 30.732C75.1768 29.952 74.9668 29.052 74.9668 28.032C74.9668 27.012 75.1708 26.118 75.5788 25.35C75.9988 24.57 76.5808 23.97 77.3248 23.55C78.0808 23.13 78.9448 22.92 79.9168 22.92C80.8528 22.92 81.6868 23.124 82.4188 23.532C83.1508 23.94 83.7208 24.516 84.1288 25.26C84.5368 25.992 84.7408 26.838 84.7408 27.798ZM82.5988 27.15C82.5868 26.394 82.3168 25.788 81.7888 25.332C81.2608 24.876 80.6068 24.648 79.8268 24.648C79.1188 24.648 78.5128 24.876 78.0088 25.332C77.5048 25.776 77.2048 26.382 77.1088 27.15H82.5988ZM88.8122 19.68V33H86.7602V19.68H88.8122ZM103.004 20.49V29.508C103.004 30.624 102.662 31.506 101.978 32.154C101.306 32.802 100.418 33.126 99.314 33.126C98.21 33.126 97.316 32.802 96.632 32.154C95.96 31.506 95.624 30.624 95.624 29.508H97.694C97.706 30.06 97.844 30.498 98.108 30.822C98.384 31.146 98.786 31.308 99.314 31.308C99.842 31.308 100.244 31.146 100.52 30.822C100.796 30.486 100.934 30.048 100.934 29.508V20.49H103.004ZM105.658 27.996C105.658 27 105.862 26.118 106.27 25.35C106.69 24.582 107.254 23.988 107.962 23.568C108.682 23.136 109.474 22.92 110.338 22.92C111.118 22.92 111.796 23.076 112.372 23.388C112.96 23.688 113.428 24.066 113.776 24.522V23.082H115.846V33H113.776V31.524C113.428 31.992 112.954 32.382 112.354 32.694C111.754 33.006 111.07 33.162 110.302 33.162C109.45 33.162 108.67 32.946 107.962 32.514C107.254 32.07 106.69 31.458 106.27 30.678C105.862 29.886 105.658 28.992 105.658 27.996ZM113.776 28.032C113.776 27.348 113.632 26.754 113.344 26.25C113.068 25.746 112.702 25.362 112.246 25.098C111.79 24.834 111.298 24.702 110.77 24.702C110.242 24.702 109.75 24.834 109.294 25.098C108.838 25.35 108.466 25.728 108.178 26.232C107.902 26.724 107.764 27.312 107.764 27.996C107.764 28.68 107.902 29.28 108.178 29.796C108.466 30.312 108.838 30.708 109.294 30.984C109.762 31.248 110.254 31.38 110.77 31.38C111.298 31.38 111.79 31.248 112.246 30.984C112.702 30.72 113.068 30.336 113.344 29.832C113.632 29.316 113.776 28.716 113.776 28.032ZM117.857 28.032C117.857 27.012 118.061 26.118 118.469 25.35C118.889 24.57 119.465 23.97 120.197 23.55C120.929 23.13 121.769 22.92 122.717 22.92C123.917 22.92 124.907 23.208 125.687 23.784C126.479 24.348 127.013 25.158 127.289 26.214H125.075C124.895 25.722 124.607 25.338 124.211 25.062C123.815 24.786 123.317 24.648 122.717 24.648C121.877 24.648 121.205 24.948 120.701 25.548C120.209 26.136 119.963 26.964 119.963 28.032C119.963 29.1 120.209 29.934 120.701 30.534C121.205 31.134 121.877 31.434 122.717 31.434C123.905 31.434 124.691 30.912 125.075 29.868H127.289C127.001 30.876 126.461 31.68 125.669 32.28C124.877 32.868 123.893 33.162 122.717 33.162C121.769 33.162 120.929 32.952 120.197 32.532C119.465 32.1 118.889 31.5 118.469 30.732C118.061 29.952 117.857 29.052 117.857 28.032ZM133.258 28.05L137.83 33H135.058L131.386 28.734V33H129.334V19.68H131.386V27.42L134.986 23.082H137.83L133.258 28.05ZM142.901 33.162C142.121 33.162 141.419 33.024 140.795 32.748C140.183 32.46 139.697 32.076 139.337 31.596C138.977 31.104 138.785 30.558 138.761 29.958H140.885C140.921 30.378 141.119 30.732 141.479 31.02C141.851 31.296 142.313 31.434 142.865 31.434C143.441 31.434 143.885 31.326 144.197 31.11C144.521 30.882 144.683 30.594 144.683 30.246C144.683 29.874 144.503 29.598 144.143 29.418C143.795 29.238 143.237 29.04 142.469 28.824C141.725 28.62 141.119 28.422 140.651 28.23C140.183 28.038 139.775 27.744 139.427 27.348C139.091 26.952 138.923 26.43 138.923 25.782C138.923 25.254 139.079 24.774 139.391 24.342C139.703 23.898 140.147 23.55 140.723 23.298C141.311 23.046 141.983 22.92 142.739 22.92C143.867 22.92 144.773 23.208 145.457 23.784C146.153 24.348 146.525 25.122 146.573 26.106H144.521C144.485 25.662 144.305 25.308 143.981 25.044C143.657 24.78 143.219 24.648 142.667 24.648C142.127 24.648 141.713 24.75 141.425 24.954C141.137 25.158 140.993 25.428 140.993 25.764C140.993 26.028 141.089 26.25 141.281 26.43C141.473 26.61 141.707 26.754 141.983 26.862C142.259 26.958 142.667 27.084 143.207 27.24C143.927 27.432 144.515 27.63 144.971 27.834C145.439 28.026 145.841 28.314 146.177 28.698C146.513 29.082 146.687 29.592 146.699 30.228C146.699 30.792 146.543 31.296 146.231 31.74C145.919 32.184 145.475 32.532 144.899 32.784C144.335 33.036 143.669 33.162 142.901 33.162ZM153.218 33.162C152.282 33.162 151.436 32.952 150.68 32.532C149.924 32.1 149.33 31.5 148.898 30.732C148.466 29.952 148.25 29.052 148.25 28.032C148.25 27.024 148.472 26.13 148.916 25.35C149.36 24.57 149.966 23.97 150.734 23.55C151.502 23.13 152.36 22.92 153.308 22.92C154.256 22.92 155.114 23.13 155.882 23.55C156.65 23.97 157.256 24.57 157.7 25.35C158.144 26.13 158.366 27.024 158.366 28.032C158.366 29.04 158.138 29.934 157.682 30.714C157.226 31.494 156.602 32.1 155.81 32.532C155.03 32.952 154.166 33.162 153.218 33.162ZM153.218 31.38C153.746 31.38 154.238 31.254 154.694 31.002C155.162 30.75 155.54 30.372 155.828 29.868C156.116 29.364 156.26 28.752 156.26 28.032C156.26 27.312 156.122 26.706 155.846 26.214C155.57 25.71 155.204 25.332 154.748 25.08C154.292 24.828 153.8 24.702 153.272 24.702C152.744 24.702 152.252 24.828 151.796 25.08C151.352 25.332 150.998 25.71 150.734 26.214C150.47 26.706 150.338 27.312 150.338 28.032C150.338 29.1 150.608 29.928 151.148 30.516C151.7 31.092 152.39 31.38 153.218 31.38ZM165.399 22.92C166.179 22.92 166.875 23.082 167.487 23.406C168.111 23.73 168.597 24.21 168.945 24.846C169.293 25.482 169.467 26.25 169.467 27.15V33H167.433V27.456C167.433 26.568 167.211 25.89 166.767 25.422C166.323 24.942 165.717 24.702 164.949 24.702C164.181 24.702 163.569 24.942 163.113 25.422C162.669 25.89 162.447 26.568 162.447 27.456V33H160.395V23.082H162.447V24.216C162.783 23.808 163.209 23.49 163.725 23.262C164.253 23.034 164.811 22.92 165.399 22.92Z" fill="#F6F6F6"/>
</svg>
